<svg width="306" height="107" viewBox="0 0 306 107" fill="none" xmlns="http://www.w3.org/2000/svg">
<path d="M22.8635 42.7084C22.8635 43.9184 22.8635 44.9244 22.9296 45.867C23.1989 49.3592 24.4719 50.1667 29.6325 49.7643V55.8114C27.554 56.1476 25.6102 56.2826 23.5344 56.2826C16.6307 56.2826 14.1534 53.9978 13.7493 48.9594C13.6146 47.347 13.6146 45.8008 13.6146 43.786V26.1821H8.38794V20.0688H13.6146V11.2682H22.8635V20.0688H30.2347V26.1821H22.8635V42.7084Z" fill="#EEE5D0"/>
<path d="M63.6123 40.0899H38.2793C38.8815 47.6144 42.233 49.9654 46.5221 49.9654C50.4757 49.9654 53.3571 47.7494 53.9619 43.9183H63.2109C61.4017 52.2477 54.7014 56.4812 46.3213 56.4812C36.5362 56.4812 28.9644 50.3679 28.9644 37.805C28.9644 26.8546 36.1348 18.8588 47.0582 18.8588C57.9816 18.8588 63.7443 27.1908 63.7443 36.9313C63.7443 37.805 63.7443 38.88 63.6123 40.0899ZM38.5461 34.0428H54.2286C53.6265 28.4008 51.0779 25.3772 46.6568 25.3772C42.3677 25.3772 39.3516 28.1307 38.5461 34.0428Z" fill="#EEE5D0"/>
<path d="M97.7901 32.7005H88.6759C87.8043 27.5271 85.1236 25.3772 81.3047 25.3772C76.6142 25.3772 73.2627 29.2083 73.2627 37.3364C73.2627 46.2032 76.6142 49.9655 81.2387 49.9655C84.8569 49.9655 87.5376 47.6806 88.4778 43.1797H97.7267C96.1844 51.9803 89.6187 56.4812 80.7052 56.4812C70.9887 56.4812 63.6836 50.2991 63.6836 37.9374C63.6836 25.7108 71.7256 18.8562 81.5107 18.8562C91.1558 18.8588 97.1193 24.7709 97.7901 32.7005Z" fill="#EEE5D0"/>
<path d="M133.175 35.3878V55.5439H123.926V36.6666C123.926 35.1892 123.926 33.508 123.791 31.6944C123.525 27.9321 121.446 25.3799 116.956 25.3799C112.466 25.4461 108.914 29.2771 108.914 39.2189V55.5439H99.6653V5.82736H108.914V25.5784L111.661 21.3449C114.207 19.5313 116.822 18.8588 120.239 18.8588C127.811 18.8588 132.169 22.6211 132.906 28.8694C133.109 30.683 133.175 32.4966 133.175 35.3878Z" fill="#EEE5D0"/>
<path d="M60.937 70.1428H51.6881C51.0859 66.8518 49.2768 64.9694 46.192 64.9694C43.4427 64.9694 41.969 66.5818 41.969 68.7978C41.969 71.4851 44.1796 72.8963 50.077 74.3736C57.3822 76.2561 61.6712 79.2108 61.6712 85.7954C61.6712 92.9836 55.169 96.4784 46.9949 96.4784C38.3508 96.4784 32.2499 92.7162 31.2463 84.6543H40.4953C41.2322 88.5515 43.9128 90.3651 47.1296 90.3651C50.077 90.3651 52.3563 89.089 52.3563 86.4679C52.3563 83.7144 50.011 82.1682 43.8468 80.622C37.2125 78.9434 32.654 76.0549 32.654 69.8727C32.654 63.0208 38.2821 58.8561 46.7942 58.8561C55.3063 58.8561 60.1341 63.6244 60.937 70.1428Z" fill="#EEE5D0"/>
<path d="M97.9329 77.6673C97.9329 88.4827 91.2986 96.4784 79.435 96.4784C67.5714 96.4784 60.9397 88.4827 60.9397 77.6673C60.9397 66.783 67.574 58.8561 79.435 58.8561C91.2959 58.8561 97.9329 66.783 97.9329 77.6673ZM88.3485 77.6673C88.3485 69.9416 84.997 65.3718 79.435 65.3718C73.8729 65.3718 70.5214 69.9416 70.5214 77.6673C70.5214 85.3268 73.8729 89.9627 79.435 89.9627C84.997 89.9601 88.3485 85.3241 88.3485 77.6673Z" fill="#EEE5D0"/>
<path d="M108.925 83.8468C108.925 85.2579 108.925 86.1978 108.994 87.1377C109.194 88.9513 110 89.555 113.148 89.3537V95.7371C111.339 95.9383 109.53 96.0045 107.451 96.0045C102.895 96.0045 100.011 94.3259 99.8107 89.69C99.676 88.0776 99.676 86.399 99.676 84.048V46.1582H108.925V83.8468Z" fill="#EEE5D0"/>
<path d="M147.527 95.5359H138.278V89.4888L135.528 94.0585C132.914 95.806 130.368 96.4758 126.95 96.4758C119.579 96.4758 115.155 92.3111 114.352 87.4051C114.083 85.5915 114.017 83.7779 114.017 80.8894V59.7933H123.266V78.9408C123.266 80.0819 123.332 82.0305 123.533 83.8441C124.003 87.5402 126.147 89.8912 130.436 89.8912C135.061 89.8912 138.278 86.0628 138.278 78.0009V59.7933H147.527V95.5359Z" fill="#EEE5D0"/>
<path d="M163.074 82.7056C163.074 83.9156 163.074 84.9217 163.14 85.8642C163.41 89.3564 164.683 90.1639 169.843 89.7615V95.8086C167.765 96.1448 165.821 96.2799 163.745 96.2799C156.842 96.2799 154.364 93.995 153.96 88.9566C153.826 87.3442 153.826 85.798 153.826 83.7832V66.182H148.599V60.0687H153.826V51.2681H163.074V60.0687H170.446V66.182H163.074V82.7056Z" fill="#EEE5D0"/>
<path d="M181.438 51.321V87.0636H172.189V51.321H181.438Z" fill="#EEE5D0"/>
<path d="M220.575 77.6673C220.575 88.4827 213.941 96.4784 202.077 96.4784C190.216 96.4784 183.582 88.4827 183.582 77.6673C183.582 66.783 190.216 58.8561 202.077 58.8561C213.941 58.8561 220.575 66.783 220.575 77.6673ZM210.994 77.6673C210.994 69.9416 207.642 65.3718 202.08 65.3718C196.518 65.3718 193.166 69.9416 193.166 77.6673C193.166 85.3268 196.518 89.9627 202.08 89.9627C207.642 89.9601 210.994 85.3241 210.994 77.6673Z" fill="#EEE5D0"/>
<path d="M256.095 75.3824V95.5385H246.846V76.6612C246.846 75.1838 246.846 73.5026 246.711 71.689C246.445 67.9267 244.366 65.3745 239.876 65.3745C235.386 65.3745 231.834 69.2717 231.834 79.2134V95.5385H222.588V59.796H231.837V65.573L234.584 61.3395C237.13 59.5259 239.744 58.8534 243.162 58.8534C250.734 58.8534 255.091 62.6157 255.828 68.864C256.029 70.6802 256.095 72.4938 256.095 75.3824Z" fill="#EEE5D0"/>
<path d="M287.058 70.1428H277.809C277.207 66.8518 275.398 64.9694 272.313 64.9694C269.564 64.9694 268.09 66.5818 268.09 68.7978C268.09 71.4851 270.301 72.8963 276.198 74.3736C283.504 76.2561 287.793 79.2108 287.793 85.7954C287.793 92.9836 281.29 96.4784 273.116 96.4784C264.472 96.4784 258.371 92.7162 257.368 84.6543H266.617C267.353 88.5515 270.034 90.3651 273.251 90.3651C276.198 90.3651 278.478 89.089 278.478 86.4679C278.478 83.7144 276.132 82.1682 269.965 80.622C263.331 78.9434 258.773 76.0549 258.773 69.8727C258.773 63.0208 264.401 58.8561 272.913 58.8561C281.425 58.8561 286.253 63.6244 287.058 70.1428Z" fill="#EEE5D0"/>
<path d="M299.054 90.8338C299.054 94.1247 296.775 96.4758 293.423 96.4758C290.141 96.4758 287.861 94.1247 287.861 90.8338C287.861 87.5428 290.141 85.1891 293.423 85.1891C296.775 85.1917 299.054 87.5428 299.054 90.8338Z" fill="#EEE5D0"/>
<path d="M181.908 95.4591C181.908 98.4165 179.829 100.365 176.813 100.365C173.797 100.365 171.721 98.4165 171.721 95.4591C171.721 92.5706 173.797 90.5558 176.813 90.5558C179.829 90.5558 181.908 92.5706 181.908 95.4591Z" fill="#EEE5D0"/>
</svg>
